# xmcd
#
# Track frame offsets: 
#        150
#        34491
#        54567
#        74390
#        109255
#
# Disc length: 2150 seconds
#
# Revision: 1
# Processed by: cddbd v1.5.2PL0 Copyright (c) Steve Scherf et al.
# Submitted via: ExactAudioCopy v0.99pb5
#
DISCID=47086405
DTITLE=Loreena McKennitt - Share the Journey
DYEAR=2007
DGENRE=Celtic
TTITLE0=Caravanserai
TTITLE1=The Mummers' Dance (Live)
TTITLE2=Huron 'Beltane' Fire Dance
TTITLE3=The Mystic's Dream
TTITLE4=The Lady of Shalott
EXTD=YEAR: 2007
EXTT0=
EXTT1=
EXTT2=
EXTT3=
EXTT4=
PLAYORDER=
